<svg xmlns="http://www.w3.org/2000/svg" xmlns:xlink="http://www.w3.org/1999/xlink" version="1.1" x="0px" y="0px" viewBox="0 0 296.656 271.66625" style="enable-background:new 0 0 296.656 217.333;" xml:space="preserve"><g><circle cx="210.326" cy="159.86" r="4.071"/><ellipse cx="210.326" cy="147.307" rx="2.714" ry="6.446"/><ellipse cx="210.326" cy="172.414" rx="2.714" ry="6.447"/><ellipse transform="matrix(0.707 -0.7072 0.7072 0.707 -42.5521 199.256)" cx="219.203" cy="150.983" rx="6.446" ry="2.715"/><ellipse transform="matrix(0.7071 -0.7071 0.7071 0.7071 -60.3108 191.8816)" cx="201.45" cy="168.737" rx="6.446" ry="2.714"/><ellipse cx="222.88" cy="159.861" rx="6.446" ry="2.714"/><ellipse cx="197.773" cy="159.861" rx="6.446" ry="2.714"/><ellipse transform="matrix(0.7071 -0.7071 0.7071 0.7071 -55.1103 204.4373)" cx="219.203" cy="168.737" rx="2.715" ry="6.446"/><ellipse transform="matrix(0.7071 -0.7071 0.7071 0.7071 -47.7598 186.6564)" cx="201.45" cy="150.983" rx="2.714" ry="6.446"/><path d="M218.301,192.253c0.584-1.705-0.348-3.568-5.889-5.465c-5.541-1.898-13.594-3.111-14.178-1.406   c-0.584,1.705,6.523,5.683,12.064,7.58C215.84,194.859,217.719,193.958,218.301,192.253z"/><path d="M225.992,191.148c1.684,0.644,3.58-0.221,5.672-5.691c2.094-5.471,3.594-13.475,1.91-14.119   c-1.684-0.645-5.912,6.316-8.006,11.787C223.476,188.594,224.31,190.503,225.992,191.148z"/><path d="M221.937,209.303c0.623-3.466,0.887-6.813,0.887-9.961c-0.006-14.167-5.131-24.412-5.168-24.494   c-0.248-0.495-0.85-0.694-1.342-0.447c-0.496,0.246-0.693,0.848-0.445,1.341h-0.002c0,0.002,0.297,0.591,0.758,1.73   c1.395,3.419,4.201,11.61,4.199,21.87c0,3.157-0.275,6.515-0.928,9.988c-4.707,0.212-13.57,1.476-13.57,5.965h13.428   c0.002,0,0.006,0.001,0.008,0.001c0.002,0,0.004-0.001,0.006-0.001h16.559C236.326,210.53,226.336,209.399,221.937,209.303z"/><path d="M277.56,172.322c-4.81,2.213-10.838,6.439-10.156,7.92c0.682,1.48,7.813-0.348,12.623-2.561   c4.809-2.212,5.477-3.974,4.795-5.453C284.142,170.748,282.371,170.109,277.56,172.322z"/><path d="M253.765,161.824c-1.41,0.642-2.025,2.324,0.061,6.911c2.086,4.585,6.082,10.338,7.494,9.696   c1.41-0.642-0.299-7.435-2.385-12.021C256.849,161.825,255.178,161.182,253.765,161.824z"/><path d="M264.82,209.349c-0.131-0.604-0.27-1.295-0.41-2.064c-0.563-3.076-1.127-7.371-1.127-12.214   c0-9.072,1.975-20.009,9.486-28.604c0.361-0.415,0.318-1.047-0.096-1.41c-0.418-0.363-1.049-0.319-1.412,0.096   c-7.959,9.122-9.979,20.577-9.979,29.918c0.002,5.947,0.818,11.046,1.484,14.226c-4.185,0.04-14.752,1.097-14.752,5.998h30   C278.015,210.924,269.607,209.61,264.82,209.349z"/><path d="M273.775,133.269c-0.244-0.506-0.605-0.852-1.082-1.035c-0.477-0.184-0.959-0.157-1.449,0.078   c-0.488,0.238-0.807,0.602-0.957,1.096c-0.15,0.49-0.104,0.986,0.137,1.484c0.213,0.436,1.063,1.833,2.555,4.191   c1.492,2.358,2.897,4.656,4.217,6.893l1.021-0.494c-0.908-2.436-1.824-4.97-2.744-7.605   C274.553,135.241,273.986,133.706,273.775,133.269z"/><path d="M284.959,157.458c-1.492-2.358-2.896-4.656-4.217-6.893l-1.021,0.494c0.91,2.436,1.824,4.971,2.744,7.605   c0.922,2.636,1.486,4.171,1.697,4.608c0.244,0.505,0.607,0.851,1.084,1.034c0.477,0.184,0.959,0.157,1.447-0.078   c0.49-0.237,0.807-0.602,0.957-1.095c0.15-0.491,0.105-0.986-0.137-1.484C287.303,161.212,286.451,159.815,284.959,157.458z"/><path d="M280.258,130.589c-0.543-0.041-1,0.116-1.377,0.469c-0.373,0.351-0.582,0.802-0.623,1.354   c-0.035,0.484,0.004,2.119,0.117,4.908c0.113,2.787,0.182,5.48,0.205,8.077l1.131,0.083c0.43-2.564,0.906-5.217,1.426-7.96   c0.521-2.741,0.799-4.354,0.834-4.839c0.041-0.56-0.098-1.039-0.42-1.437C281.23,130.847,280.799,130.628,280.258,130.589z"/><path d="M276.801,159.02c-0.522,2.742-0.799,4.355-0.834,4.839c-0.041,0.56,0.1,1.04,0.42,1.437   c0.32,0.397,0.752,0.616,1.293,0.657c0.543,0.039,1-0.117,1.377-0.47c0.375-0.351,0.582-0.802,0.623-1.355   c0.035-0.483-0.004-2.119-0.115-4.907c-0.113-2.788-0.184-5.48-0.207-8.078l-1.131-0.082   C277.797,153.625,277.32,156.277,276.801,159.02z"/><path d="M288.926,133.601c-0.449-0.304-0.924-0.398-1.426-0.281c-0.502,0.117-0.906,0.404-1.217,0.861   c-0.273,0.4-1.057,1.836-2.354,4.308c-1.297,2.472-2.584,4.838-3.861,7.099l0.94,0.637c1.654-2.005,3.392-4.064,5.215-6.18   c1.822-2.113,2.867-3.371,3.139-3.772c0.318-0.466,0.435-0.951,0.357-1.455C289.638,134.312,289.375,133.907,288.926,133.601z"/><path d="M269.012,162.939c0.449,0.305,0.926,0.397,1.426,0.281c0.502-0.116,0.908-0.403,1.217-0.86   c0.274-0.401,1.057-1.837,2.354-4.309c1.297-2.472,2.584-4.837,3.861-7.099l-0.94-0.637c-1.652,2.005-3.392,4.064-5.213,6.18   c-1.822,2.114-2.869,3.372-3.141,3.773c-0.316,0.465-0.436,0.949-0.357,1.454C268.299,162.229,268.562,162.633,269.012,162.939z"/><path d="M281.263,146.498l0.494,1.021c2.434-0.909,4.969-1.824,7.605-2.745c2.635-0.919,4.17-1.486,4.608-1.697   c0.506-0.244,0.85-0.605,1.035-1.082c0.184-0.477,0.156-0.959-0.08-1.447c-0.236-0.49-0.6-0.809-1.094-0.958   c-0.492-0.148-0.986-0.105-1.484,0.138c-0.435,0.21-1.834,1.061-4.191,2.554C285.797,143.772,283.5,145.177,281.263,146.498z"/><path d="M276.676,150.043l-0.494-1.021c-2.438,0.909-4.971,1.825-7.607,2.745c-2.635,0.92-4.17,1.485-4.607,1.697   c-0.506,0.245-0.85,0.605-1.033,1.083c-0.184,0.475-0.158,0.958,0.078,1.447c0.236,0.489,0.601,0.808,1.094,0.957   c0.492,0.149,0.986,0.104,1.484-0.137c0.438-0.211,1.834-1.063,4.191-2.555C272.14,152.769,274.437,151.363,276.676,150.043z"/><path d="M294.828,147.56c-0.484-0.036-2.119,0.003-4.908,0.115c-2.789,0.113-5.48,0.182-8.078,0.206l-0.082,1.132   c2.563,0.43,5.217,0.905,7.959,1.426c2.742,0.521,4.355,0.798,4.838,0.834c0.56,0.04,1.041-0.1,1.438-0.42   c0.398-0.321,0.617-0.752,0.656-1.295c0.039-0.541-0.117-0.999-0.469-1.375C295.83,147.808,295.379,147.6,294.828,147.56z"/><path d="M261.943,145.687c-0.398,0.321-0.615,0.753-0.656,1.295c-0.039,0.541,0.117,1,0.469,1.376   c0.352,0.374,0.803,0.582,1.353,0.622c0.484,0.035,2.119-0.003,4.908-0.116c2.789-0.111,5.48-0.181,8.078-0.205l0.082-1.131   c-2.565-0.431-5.217-0.905-7.959-1.426c-2.742-0.521-4.354-0.8-4.838-0.834C262.82,145.226,262.34,145.367,261.943,145.687z"/><path d="M293.058,155.584c-0.4-0.271-1.838-1.057-4.309-2.353c-2.471-1.297-4.838-2.583-7.098-3.86l-0.637,0.939   c2.004,1.652,4.064,3.391,6.178,5.213c2.115,1.822,3.373,2.869,3.775,3.142c0.465,0.316,0.949,0.434,1.455,0.355   c0.504-0.079,0.908-0.344,1.215-0.792c0.305-0.449,0.398-0.925,0.281-1.425C293.803,156.3,293.515,155.895,293.058,155.584z"/><path d="M265.515,137.521c-0.504,0.079-0.91,0.344-1.215,0.792c-0.305,0.45-0.4,0.925-0.281,1.425   c0.115,0.502,0.402,0.907,0.859,1.219c0.402,0.272,1.838,1.057,4.309,2.353c2.471,1.297,4.838,2.583,7.1,3.86l0.637-0.938   c-2.006-1.654-4.066-3.392-6.18-5.214c-2.115-1.822-3.373-2.869-3.773-3.141C266.506,137.56,266.019,137.442,265.515,137.521z"/><path d="M89.488,140.982c0.065-1.917,0.096-3.775,0.094-5.571c0-3.466-0.111-6.697-0.293-9.68   c2.338,2.157,6.186,6.085,9.908,11.555c0.801,1.177,1.592,2.423,2.367,3.728c8.293-0.877,16.514-3.399,24.969-6.371   c-2.316-4.716-4.871-8.889-7.412-12.493c-1.041,0.061-2.086,0.103-3.145,0.103c-2.775,0-5.553-0.224-8.313-0.675   c-14.266-2.764-22.436-12.416-22.676-15.253c-0.066-0.799,0.268-1.533,0.859-1.972c0.416-0.337,0.939-0.517,1.504-0.517   c1.166,0,2.295,0.734,4.549,2.199c3.565,2.317,9.527,6.195,17.365,7.838c1.25,0.252,2.529,0.441,3.828,0.57   c-1.762-2.032-3.414-3.761-4.889-5.212c-7.311-22.396-3.213-34.139,5.324-48.36c9.367,2.64,27.729,9.813,47.078,28.518   c1.553,1.502,3.557,2.249,5.561,2.249c2.092,0,4.182-0.815,5.75-2.438c3.072-3.177,2.986-8.242-0.189-11.312   c-19.129-18.488-37.664-27.128-49.596-31.103c-4.396,6.579-11.891,10.923-20.381,10.923c-12.396,0-22.666-9.256-24.275-21.216   c-1.715-0.381-3.428-0.763-5.143-1.144c-0.178-0.041-0.377-0.06-0.576-0.082c-0.764-0.242-1.576-0.375-2.422-0.375v-0.003   c-3.299,0.009-6.24,0.919-8.875,2.139c-4.607,2.17-8.605,5.329-12.783,8.869c-6.215,5.318-12.709,11.62-19.727,17.109   c-7.006,5.499-14.449,10.089-22.148,12.275c-4.248,1.213-6.707,5.641-5.492,9.891C1.312,88.682,4.515,90.972,8,90.972   c0.726,0,1.467-0.1,2.201-0.309c16.258-4.718,28.814-15.683,39.051-24.772c2.164-1.938,4.215-3.793,6.152-5.505   c-1.141,16.698,1.859,30.198,6.221,48.365c0.072,0.392,0.16,0.785,0.271,1.177v-0.002h0.002c0.182,0.681,2.162,8.404,2.596,20.693   c4.619,3.139,11.748,7.674,20.912,9.696C86.758,140.604,88.117,140.815,89.488,140.982z"/><path d="M64.474,140.652c-0.592,15.815-3.988,36.367-14.541,58.867c-2.932,6.251-0.242,13.693,6.01,16.627   c1.715,0.805,3.521,1.186,5.299,1.186c4.697,0,9.199-2.661,11.326-7.196c10.422-22.217,14.871-42.992,16.373-60.179   c-1.805-0.148-3.606-0.372-5.399-0.681C75.435,147.62,69.082,144.21,64.474,140.652z"/><path d="M110.619,173.672c-0.004,7.879-1.396,16.758-5.1,26.84c-2.383,6.479,0.936,13.663,7.414,16.047   c1.424,0.524,2.881,0.772,4.314,0.772c5.09,0,9.873-3.132,11.736-8.186c4.664-12.67,6.639-24.595,6.637-35.473   c0.004-12.036-2.408-22.644-5.898-31.696c-7.766,2.994-15.73,5.727-24.059,7.153C108.574,156.024,110.615,164.192,110.619,173.672z   "/><circle cx="101.752" cy="33.206" r="22.5"/><rect x="116.619" y="72.389" transform="matrix(0.9517 -0.3071 0.3071 0.9517 -22.8296 40.6834)" width="2.499" height="41"/><rect x="131.752" y="64.138" transform="matrix(0.7879 -0.6159 0.6159 0.7879 -23.9096 99.867)" width="2.499" height="41"/><path d="M124.609,83.735l-2.049,1.113l14.281,26.309c0.756-0.23,1.512-0.466,2.27-0.71L124.609,83.735z"/><path d="M108.871,115.832c-12.893-2.701-20.748-11.038-21.805-9.89c-0.967,0.364,6.123,10.792,20.976,13.672   c23.018,3.748,41.893-10.097,61.988-14.062c20.736-3.087,41.996,2.897,61.65,9.775c12.738,4.994,12.898,4.748,0.25-0.591   c-19.57-7.37-40.572-14.03-62.309-11.402C148.611,107.154,129.375,119.96,108.871,115.832z"/><path d="M240.57,140.815c-24.742-9.827-51.293-18.708-78.775-15.202c-26.563,5.091-50.881,22.165-76.805,16.661   c-16.299-3.602-26.23-14.716-27.564-13.187c-1.223,0.486,7.74,14.39,26.518,18.23c29.1,4.997,52.963-13.463,78.369-18.749   c26.217-4.116,53.092,3.862,77.941,13.033C256.357,148.261,256.56,147.933,240.57,140.815z"/><path d="M114.67,6.858c1.543,0.052,3.303,0.502,4.609,3.563c0.158,0.388,0.531,0.621,0.926,0.621c0.127,0,0.256-0.024,0.381-0.075   c0.51-0.21,0.754-0.794,0.545-1.306c-1.494-3.753-4.363-4.853-6.461-4.803c-1.768,0.007-3.055,0.61-3.131,0.642   c-0.5,0.233-0.719,0.828-0.484,1.329c0.234,0.502,0.828,0.718,1.33,0.484h-0.002c0,0,0.211-0.099,0.631-0.218   C113.433,6.977,114.025,6.858,114.67,6.858z"/><path d="M124.119,8.906c0.113,0,0.229-0.02,0.342-0.061c0.52-0.19,0.785-0.765,0.596-1.283c-2.18-6.09-6.633-7.618-9.758-7.56   c-2.254,0.002-3.895,0.66-3.967,0.688c-0.514,0.206-0.764,0.786-0.557,1.301c0.205,0.512,0.787,0.762,1.301,0.557l-0.002-0.002   c0.002,0,0.307-0.123,0.891-0.263C113.547,2.139,114.373,2,115.299,2c2.6,0.058,5.867,0.913,7.879,6.249   C123.326,8.654,123.709,8.906,124.119,8.906z"/><path d="M154.906,56.451c0.131,0.536,0.676,0.864,1.211,0.731c0,0,0.086-0.022,0.297-0.053c0.209-0.029,0.516-0.062,0.881-0.062   c1.676,0.085,4.117,0.412,4.99,4.492c0.094,0.477,0.512,0.807,0.979,0.807c0.064,0,0.131-0.007,0.195-0.02   c0.543-0.106,0.896-0.634,0.787-1.176c-0.951-5.104-4.871-6.188-6.951-6.104c-0.951,0-1.602,0.158-1.658,0.171   C155.101,55.371,154.773,55.915,154.906,56.451z"/><path d="M163.896,51.958c-2.105-1.353-4.35-1.609-5.822-1.611c-1.008,0-1.666,0.123-1.713,0.132   c-0.543,0.104-0.898,0.628-0.795,1.171c0.104,0.541,0.627,0.896,1.168,0.793c0.002,0,0.496-0.096,1.34-0.096   c1.242-0.002,3.105,0.232,4.736,1.29c1.629,1.064,3.129,2.914,3.719,6.545c0.076,0.492,0.504,0.844,0.986,0.844   c0.053,0,0.104-0.004,0.156-0.012c0.547-0.088,0.92-0.601,0.832-1.146C167.869,55.796,166.008,53.306,163.896,51.958z"/><polygon points="156.736,52.442 156.734,52.442 156.734,52.442  "/><path d="M56.605,158.49c0.434-0.338,0.514-0.966,0.176-1.402c-0.338-0.436-0.965-0.516-1.402-0.176   c-2.33,1.78-3.172,3.896-3.154,5.694c0.023,2.719,1.648,4.568,1.705,4.656c0.197,0.232,0.479,0.352,0.762,0.352   c0.229,0,0.461-0.078,0.648-0.237c0.42-0.357,0.473-0.989,0.115-1.409v-0.002c0,0-0.057-0.063-0.172-0.229   c-0.355-0.502-1.066-1.749-1.059-3.13C54.242,161.389,54.678,160.006,56.605,158.49z"/><path d="M52.308,153.689c-3.834,2.713-5.088,5.954-5.066,8.671c0.018,3.674,2.055,6.301,2.107,6.389   c0.197,0.258,0.494,0.394,0.795,0.394c0.211,0,0.424-0.066,0.605-0.204c0.441-0.336,0.525-0.962,0.191-1.4l-0.002-0.002   c0,0-0.084-0.109-0.242-0.366c-0.484-0.766-1.463-2.643-1.455-4.809c0.02-2.134,0.838-4.595,4.227-7.047   c0.447-0.32,0.553-0.944,0.232-1.394C53.379,153.469,52.756,153.367,52.308,153.689z"/><path d="M22.902,56.154c-3.063-0.025-4.963,1.604-5.871,3.159c-0.935,1.554-1.074,3.015-1.084,3.098   c-0.057,0.549,0.344,1.039,0.895,1.095c0.033,0.003,0.066,0.005,0.102,0.005c0.506,0,0.941-0.386,0.992-0.901   c0-0.003,0.021-0.242,0.141-0.678c0.416-1.358,1.357-3.763,4.826-3.777c0.373,0,0.773,0.025,1.207,0.091   c0.545,0.081,1.055-0.295,1.137-0.841c0.08-0.547-0.295-1.054-0.84-1.137C23.871,56.186,23.373,56.152,22.902,56.154z"/><path d="M24.588,51.819c-0.998-0.188-1.924-0.271-2.783-0.271c-4.31-0.019-6.973,2.186-8.367,4.322   c-1.414,2.137-1.727,4.195-1.744,4.276c-0.084,0.546,0.291,1.058,0.838,1.142c0.051,0.008,0.102,0.011,0.15,0.011   c0.486,0,0.914-0.353,0.992-0.848l-0.002-0.002c0,0,0.057-0.392,0.271-1.054c0.705-2.03,2.5-5.839,7.861-5.848   c0.731,0,1.533,0.07,2.416,0.233c0.543,0.101,1.064-0.257,1.166-0.798C25.49,52.441,25.131,51.919,24.588,51.819z"/><path d="M139.896,155.289c-0.508-0.221-1.096,0.009-1.318,0.515c-0.221,0.507,0.01,1.097,0.514,1.317c0,0,0.154,0.064,0.443,0.241   c0.902,0.553,2.572,1.886,2.553,4.101c0,0.787-0.197,1.735-0.762,2.884c-0.244,0.496-0.041,1.096,0.457,1.341   c0.141,0.07,0.291,0.102,0.439,0.102c0.371,0,0.727-0.205,0.9-0.559c0.674-1.374,0.967-2.635,0.967-3.768   C144.017,157.033,139.963,155.338,139.896,155.289z"/><path d="M143.367,151.947c-0.494-0.249-1.098-0.051-1.344,0.443c-0.25,0.492-0.053,1.095,0.441,1.345c0,0,0.248,0.122,0.678,0.415   c1.316,0.9,3.852,3.116,3.836,6.653c0,1.4-0.381,3.061-1.443,5.03c-0.264,0.484-0.082,1.093,0.404,1.355   c0.15,0.081,0.314,0.12,0.475,0.12c0.355,0,0.699-0.191,0.883-0.524c1.191-2.207,1.684-4.211,1.682-5.982   C148.918,154.692,143.437,152.003,143.367,151.947z"/></g><text x="0" y="232.333" fill="#000000" font-size="5px" font-weight="bold" font-family="'Helvetica Neue', Helvetica, Arial-Unicode, Arial, Sans-serif">Created by Gan Khoon Lay</text><text x="0" y="237.333" fill="#000000" font-size="5px" font-weight="bold" font-family="'Helvetica Neue', Helvetica, Arial-Unicode, Arial, Sans-serif">from the Noun Project</text></svg>